<svg width="58" height="58" viewBox="0 0 58 58" fill="none" xmlns="http://www.w3.org/2000/svg">
<g clip-path="url(#clip0_161_2850)">
<path d="M37.3719 34.012C35.5155 34.012 34.0048 35.5223 34.0048 37.3787C34.0048 39.2356 35.5155 40.7464 37.3719 40.7464C39.2288 40.7464 40.7387 39.2356 40.7387 37.3787C40.7382 35.5223 39.2284 34.012 37.3719 34.012Z" fill="#D2334D"/>
<path d="M20.5909 17.2319C18.734 17.2319 17.2233 18.7426 17.2233 20.5995C17.2237 22.4555 18.7344 23.9658 20.5909 23.9658C22.4473 23.9658 23.9572 22.4555 23.9572 20.5995C23.9572 18.7426 22.4473 17.2319 20.5909 17.2319Z" fill="#D2334D"/>
<path d="M29.0012 0C13.01 0 0.0012207 13.0088 0.0012207 29C0.0012207 44.9903 13.01 58 29.0012 58C44.9907 58 57.9985 44.9903 57.9985 29C57.9985 13.0088 44.9907 0 29.0012 0ZM20.5908 13.6042C24.4469 13.6042 27.5852 16.7416 27.5852 20.5995C27.5852 24.4556 24.4469 27.594 20.5908 27.594C16.7333 27.594 13.5954 24.4556 13.5954 20.5995C13.5954 16.7416 16.7338 13.6042 20.5908 13.6042ZM18.4643 42.1008C18.1108 42.4551 17.6455 42.6327 17.1819 42.6327C16.7179 42.6327 16.2535 42.4551 15.8991 42.1008C15.1909 41.3925 15.1909 40.2434 15.8991 39.5361L39.5355 15.8988C40.2433 15.1906 41.3919 15.1906 42.1006 15.8988C42.8089 16.607 42.8089 17.7562 42.1006 18.4639L18.4643 42.1008ZM37.3718 44.3736C33.5148 44.3736 30.3765 41.2357 30.3765 37.3783C30.3765 33.5222 33.5148 30.3838 37.3718 30.3838C41.2284 30.3838 44.3662 33.5222 44.3662 37.3783C44.3658 41.2357 41.2279 44.3736 37.3718 44.3736Z" fill="#D2334D"/>
</g>
<defs>
<clipPath id="clip0_161_2850">
<rect width="58" height="58" fill="white"/>
</clipPath>
</defs>
</svg>
