<svg version="1.1" xmlns="http://www.w3.org/2000/svg" xmlns:xlink="http://www.w3.org/2000/xlink">
    <symbol id="star" width="12" height="12" viewBox="0 0 12 12"> 
        <g clip-path="url(#clip0_157_1157)">
      <path d="M11.6357 4.7108L11.6358 4.71119C11.6716 4.82135 11.6385 4.94134 11.5512 5.01769L11.5509 5.01794L8.93291 7.3135L8.7762 7.45091L8.82234 7.65415L9.59429 11.0546C9.61994 11.1678 9.57608 11.2843 9.48224 11.3524L9.48221 11.3524C9.38853 11.4203 9.26491 11.4253 9.16702 11.3664L9.1662 11.3659L6.17967 9.58034L6.0001 9.47297L5.82051 9.58031L2.83288 11.3659L2.83272 11.366C2.78592 11.394 2.73549 11.4073 2.68549 11.4073C2.62718 11.4073 2.56853 11.3893 2.51699 11.3521C2.42375 11.2847 2.37955 11.1685 2.40532 11.0544L3.17723 7.65415L3.22337 7.45093L3.06669 7.31352L0.448676 5.01751L0.448012 5.01693C0.36167 4.94159 0.328386 4.82166 0.364247 4.71137C0.400059 4.60124 0.496861 4.52383 0.611944 4.51312C0.612005 4.51311 0.612066 4.51311 0.612127 4.5131L4.07563 4.19866L4.28373 4.17977L4.36584 3.98763L5.73523 0.782976C5.73524 0.782948 5.73525 0.782919 5.73527 0.78289C5.78136 0.675507 5.8852 0.607477 6.00006 0.607477C6.11501 0.607477 6.21887 0.675594 6.26491 0.782465C6.26495 0.782543 6.26498 0.782621 6.26501 0.782699L7.63428 3.98761L7.71638 4.17977L7.92449 4.19866L11.388 4.51316L11.3883 4.51318C11.5033 4.52355 11.6002 4.60115 11.6357 4.7108Z" stroke="#FFC107" stroke-width="0.7"></path>
    </g>
    <defs>
      <clipPath id="clip0_157_1157">
        <rect width="12" height="12" fill="white"></rect>
      </clipPath>
    </defs>
    </symbol>
    <symbol id="telegram" width="20" height="20" viewBox="0 0 20 25">
        <path d="M22.2646 2.42778C21.9799 2.19091 21.6363 2.03567 21.2704 1.97858C20.9044 1.92149 20.5298 1.96469 20.1865 2.10357L2.2656 9.33892C1.88235 9.4966 1.55612 9.76711 1.3302 10.1145C1.10428 10.462 0.989366 10.8699 1.0007 11.2841C1.01204 11.6984 1.1491 12.0994 1.39368 12.434C1.63826 12.7685 1.9788 13.0208 2.3701 13.1573L5.9951 14.418L8.0156 21.0997C8.04306 21.1889 8.0829 21.2739 8.13398 21.352C8.14173 21.364 8.15266 21.373 8.1609 21.3846C8.2199 21.467 8.29121 21.5397 8.37233 21.6004C8.3954 21.618 8.41749 21.6345 8.44215 21.6501C8.53708 21.7131 8.64222 21.7591 8.75288 21.7862L8.76472 21.7872L8.77143 21.7901C8.83796 21.8036 8.90568 21.8105 8.97358 21.8106C8.98011 21.8106 8.98591 21.8074 8.99238 21.8073C9.09484 21.8055 9.19641 21.7879 9.29347 21.755C9.31605 21.7473 9.3354 21.7345 9.35731 21.7252C9.42969 21.6952 9.49826 21.6567 9.5616 21.6106C9.61232 21.5679 9.66306 21.5251 9.71382 21.4824L12.416 18.4991L16.4462 21.6211C16.8011 21.8974 17.2378 22.0475 17.6875 22.0479C18.1586 22.0473 18.6153 21.8847 18.9808 21.5874C19.3464 21.2901 19.5987 20.8762 19.6953 20.4151L22.958 4.39849C23.0319 4.03801 23.0065 3.66421 22.8843 3.31708C22.7622 2.96995 22.548 2.66255 22.2646 2.42778ZM9.3701 14.7364C9.23144 14.8745 9.13666 15.0505 9.09764 15.2422L8.78813 16.7462L8.00407 14.1532L12.0693 12.0362L9.3701 14.7364ZM17.6719 20.0401L12.9092 16.3506C12.7099 16.1966 12.4599 16.1234 12.2091 16.1455C11.9583 16.1675 11.7249 16.2833 11.5556 16.4697L10.6902 17.4249L10.9961 15.9385L18.0791 8.85549C18.2481 8.68665 18.3511 8.46285 18.3694 8.22461C18.3877 7.98638 18.3201 7.74947 18.1788 7.55681C18.0375 7.36414 17.8318 7.22845 17.5991 7.17433C17.3664 7.1202 17.122 7.15121 16.9101 7.26174L6.74485 12.5544L3.02049 11.1915L20.999 3.99905L17.6719 20.0401Z"/>
    </symbol>
    <symbol id="phone" width="20" height="20" viewBox="0 0 20 25">
        <path d="M13.94 4.56036H17.52L16.73 5.36036C16.5437 5.54772 16.4392 5.80117 16.4392 6.06536C16.4392 6.32954 16.5437 6.58299 16.73 6.77036C16.9173 6.95661 17.1708 7.06115 17.435 7.06115C17.6992 7.06115 17.9526 6.95661 18.14 6.77036L20.64 4.27036C20.8262 4.08299 20.9308 3.82954 20.9308 3.56536C20.9308 3.30117 20.8262 3.04772 20.64 2.86036L18.14 0.360356C17.9487 0.19653 17.7026 0.110924 17.4509 0.120645C17.1992 0.130366 16.9605 0.234699 16.7824 0.412793C16.6043 0.590888 16.5 0.829627 16.4903 1.0813C16.4805 1.33298 16.5662 1.57905 16.73 1.77036L17.52 2.56036H13.94C13.6748 2.56036 13.4204 2.66571 13.2329 2.85325C13.0453 3.04079 12.94 3.29514 12.94 3.56036C12.94 3.82557 13.0453 4.07993 13.2329 4.26746C13.4204 4.455 13.6748 4.56036 13.94 4.56036ZM18.44 11.0004C18.22 11.0004 17.99 10.9304 17.77 10.8804C17.3245 10.7822 16.8866 10.6518 16.46 10.4904C15.9961 10.3216 15.4861 10.3304 15.0283 10.515C14.5704 10.6996 14.1971 11.047 13.98 11.4904L13.76 11.9404C12.786 11.3985 11.891 10.7256 11.1 9.94036C10.3147 9.14937 9.6418 8.25435 9.09998 7.28036L9.51998 7.00036C9.96334 6.78327 10.3108 6.40989 10.4954 5.95205C10.68 5.49421 10.6888 4.98427 10.52 4.52036C10.3612 4.09278 10.2309 3.65515 10.13 3.21036C10.08 2.99036 10.04 2.76036 10.01 2.53036C9.88854 1.82598 9.5196 1.1881 8.9696 0.731596C8.4196 0.275093 7.72467 0.0299652 7.00998 0.0403564H4.00998C3.57901 0.0363098 3.15223 0.12517 2.75869 0.300887C2.36515 0.476604 2.01409 0.735052 1.72941 1.05864C1.44473 1.38222 1.23311 1.76335 1.10897 2.17607C0.98482 2.58879 0.951058 3.02342 1.00998 3.45036C1.54272 7.63974 3.45601 11.5322 6.44763 14.513C9.43925 17.4938 13.3387 19.3929 17.53 19.9104H17.91C18.6474 19.9114 19.3594 19.6409 19.91 19.1504C20.2263 18.8674 20.4791 18.5205 20.6514 18.1327C20.8238 17.7448 20.9119 17.3248 20.91 16.9004V13.9004C20.8977 13.2057 20.6448 12.5369 20.1943 12.008C19.7439 11.4791 19.1238 11.123 18.44 11.0004ZM18.94 17.0004C18.9398 17.1423 18.9094 17.2827 18.8508 17.412C18.7921 17.5413 18.7066 17.6566 18.6 17.7504C18.4882 17.8468 18.3576 17.9189 18.2164 17.962C18.0752 18.005 17.9265 18.0181 17.78 18.0004C14.0349 17.5202 10.5562 15.8068 7.89269 13.1306C5.22917 10.4545 3.53239 6.96769 3.06998 3.22036C3.05406 3.07387 3.06801 2.92569 3.11098 2.78475C3.15395 2.64381 3.22505 2.51304 3.31998 2.40036C3.41369 2.29369 3.52904 2.2082 3.65836 2.14957C3.78767 2.09095 3.92799 2.06054 4.06998 2.06036H7.06998C7.30253 2.05518 7.5296 2.13124 7.71212 2.27543C7.89464 2.41962 8.02119 2.62293 8.06998 2.85036C8.10998 3.12369 8.15998 3.39369 8.21998 3.66036C8.3355 4.1875 8.48924 4.70554 8.67998 5.21036L7.27998 5.86036C7.16028 5.91528 7.0526 5.9933 6.96314 6.08995C6.87367 6.1866 6.80418 6.29997 6.75865 6.42355C6.71312 6.54713 6.69245 6.67849 6.69783 6.81008C6.7032 6.94167 6.73452 7.0709 6.78998 7.19036C8.22918 10.2731 10.7072 12.7512 13.79 14.1904C14.0334 14.2904 14.3065 14.2904 14.55 14.1904C14.6747 14.1457 14.7893 14.0768 14.8871 13.9875C14.985 13.8983 15.0641 13.7905 15.12 13.6704L15.74 12.2704C16.2569 12.4552 16.7846 12.6088 17.32 12.7304C17.5866 12.7904 17.8566 12.8404 18.13 12.8804C18.3574 12.9291 18.5607 13.0557 18.7049 13.2382C18.8491 13.4207 18.9252 13.6478 18.92 13.8804L18.94 17.0004Z"/>
    </symbol>
    <symbol id="mail" width="20" height="20" viewBox="0 0 20 20"> 
        <path d="M17 0H3C2.20435 0 1.44129 0.316071 0.87868 0.87868C0.316071 1.44129 0 2.20435 0 3V13C0 13.7956 0.316071 14.5587 0.87868 15.1213C1.44129 15.6839 2.20435 16 3 16H17C17.7956 16 18.5587 15.6839 19.1213 15.1213C19.6839 14.5587 20 13.7956 20 13V3C20 2.20435 19.6839 1.44129 19.1213 0.87868C18.5587 0.316071 17.7956 0 17 0ZM3 2H17C17.2652 2 17.5196 2.10536 17.7071 2.29289C17.8946 2.48043 18 2.73478 18 3L10 7.88L2 3C2 2.73478 2.10536 2.48043 2.29289 2.29289C2.48043 2.10536 2.73478 2 3 2ZM18 13C18 13.2652 17.8946 13.5196 17.7071 13.7071C17.5196 13.8946 17.2652 14 17 14H3C2.73478 14 2.48043 13.8946 2.29289 13.7071C2.10536 13.5196 2 13.2652 2 13V5.28L9.48 9.85C9.63202 9.93777 9.80446 9.98397 9.98 9.98397C10.1555 9.98397 10.328 9.93777 10.48 9.85L18 5.28V13Z"/>
    </symbol>
    <symbol id="location" width="20" height="20" viewBox="0 0 20 25"> 
        <path d="M8 0C5.87827 0 3.84344 0.842855 2.34315 2.34315C0.842855 3.84344 0 5.87827 0 8C0 13.4 7.05 19.5 7.35 19.76C7.53113 19.9149 7.76165 20.0001 8 20.0001C8.23835 20.0001 8.46887 19.9149 8.65 19.76C9 19.5 16 13.4 16 8C16 5.87827 15.1571 3.84344 13.6569 2.34315C12.1566 0.842855 10.1217 0 8 0ZM8 17.65C5.87 15.65 2 11.34 2 8C2 6.4087 2.63214 4.88258 3.75736 3.75736C4.88258 2.63214 6.4087 2 8 2C9.5913 2 11.1174 2.63214 12.2426 3.75736C13.3679 4.88258 14 6.4087 14 8C14 11.34 10.13 15.66 8 17.65ZM8 4C7.20887 4 6.43552 4.2346 5.77772 4.67412C5.11992 5.11365 4.60723 5.73836 4.30448 6.46927C4.00173 7.20017 3.92252 8.00444 4.07686 8.78036C4.2312 9.55628 4.61216 10.269 5.17157 10.8284C5.73098 11.3878 6.44371 11.7688 7.21964 11.9231C7.99556 12.0775 8.79983 11.9983 9.53073 11.6955C10.2616 11.3928 10.8864 10.8801 11.3259 10.2223C11.7654 9.56448 12 8.79113 12 8C12 6.93913 11.5786 5.92172 10.8284 5.17157C10.0783 4.42143 9.06087 4 8 4ZM8 10C7.60444 10 7.21776 9.8827 6.88886 9.66294C6.55996 9.44318 6.30362 9.13082 6.15224 8.76537C6.00087 8.39991 5.96126 7.99778 6.03843 7.60982C6.1156 7.22186 6.30608 6.86549 6.58579 6.58579C6.86549 6.30608 7.22186 6.1156 7.60982 6.03843C7.99778 5.96126 8.39991 6.00087 8.76537 6.15224C9.13082 6.30362 9.44318 6.55996 9.66294 6.88886C9.8827 7.21776 10 7.60444 10 8C10 8.53043 9.78929 9.03914 9.41421 9.41421C9.03914 9.78929 8.53043 10 8 10Z"/>
    </symbol>
</svg>  
