<svg width="290" height="250" viewBox="0 0 290 250" fill="none" xmlns="http://www.w3.org/2000/svg">
<path fill-rule="evenodd" clip-rule="evenodd" d="M391.76 496.403C362.862 562.802 334.868 639.889 268.462 668.771C200.375 698.384 116.658 681.447 52.5929 643.917C-6.34317 609.392 -34.838 541.687 -58.1013 477.466C-76.7524 425.978 -63.0383 372.077 -65.6924 317.38C-68.6496 256.436 -98.6263 195.084 -74.5231 139.031C-47.5324 76.2627 2.70456 11.1642 70.2911 1.14456C137.621 -8.83702 184.121 67.6108 247.96 91.2228C310.277 114.272 398.727 82.4665 437 136.779C475.2 190.988 424.303 263.924 416.026 329.721C408.842 386.826 414.729 443.63 391.76 496.403Z" fill="#D2334D"/>
</svg>
