<svg width="290" height="314" viewBox="0 0 290 314" fill="none" xmlns="http://www.w3.org/2000/svg">
<path fill-rule="evenodd" clip-rule="evenodd" d="M288.722 1.24369C222.025 -6.68217 169.897 52.7652 110.333 83.8041C41.2753 119.79 -60.5658 124.088 -87.3426 197.211C-114.131 270.365 -40.6592 340.089 -9.69413 411.575C16.2093 471.376 30.6838 536.525 78.7148 580.572C129.177 626.848 194.246 653.065 262.257 660.968C334.468 669.359 418.394 675.215 472.166 626.292C525.123 578.111 499.349 490.535 523.618 423.178C547.555 356.743 631.498 304.663 612.561 236.634C593.633 168.633 497.153 164.488 440.057 122.987C386.374 83.9659 354.624 9.07513 288.722 1.24369Z" fill="#D2334D"/>
</svg>
