<svg width="20" height="20" viewBox="0 0 20 20" fill="none" xmlns="http://www.w3.org/2000/svg">
<g clip-path="url(#clip0_157_1176)">
<path d="M7.11975 16.912C7.11975 17.8648 7.89493 18.64 8.84774 18.64C9.80056 18.64 10.5757 17.8648 10.5757 16.912C10.5757 15.9592 9.80056 15.184 8.84774 15.184C7.89493 15.184 7.11975 15.9592 7.11975 16.912ZM8.84774 16.336C9.16535 16.336 9.42374 16.5944 9.42374 16.912C9.42374 17.2296 9.16535 17.488 8.84774 17.488C8.53014 17.488 8.27175 17.2296 8.27175 16.912C8.27175 16.5944 8.53014 16.336 8.84774 16.336Z" fill="#FFEDF0"/>
<path d="M12.9181 16.912C12.9181 17.8648 13.6933 18.64 14.6461 18.64C15.5989 18.64 16.3741 17.8648 16.3741 16.912C16.3741 15.9592 15.5989 15.184 14.6461 15.184C13.6933 15.184 12.9181 15.9592 12.9181 16.912ZM14.6461 16.336C14.9637 16.336 15.2221 16.5944 15.2221 16.912C15.2221 17.2296 14.9637 17.488 14.6461 17.488C14.3285 17.488 14.0701 17.2296 14.0701 16.912C14.0701 16.5944 14.3285 16.336 14.6461 16.336Z" fill="#FFEDF0"/>
<path d="M19.2541 3.66407H4.67439C4.47716 2.97368 4.29338 2.3304 4.13552 1.77787C4.0649 1.53057 3.83884 1.36008 3.58168 1.36008H0.745431C0.427327 1.36008 0.169434 1.61797 0.169434 1.93607C0.169434 2.25418 0.427327 2.51207 0.745431 2.51207H3.14719C3.7913 4.76676 5.29712 10.0372 5.92841 12.2468L5.71018 12.6832C5.13515 13.8334 5.97261 15.184 7.25578 15.184H16.9502C17.2683 15.184 17.5262 14.9261 17.5262 14.608C17.5262 14.2899 17.2683 14.032 16.9502 14.032H7.25578C6.82739 14.032 6.54918 13.5813 6.74056 13.1984L6.89977 12.88H16.9502C17.2073 12.88 17.4333 12.7096 17.504 12.4623L19.808 4.39831C19.9129 4.03102 19.637 3.66407 19.2541 3.66407ZM16.5157 11.728H6.9783C6.66446 10.6295 5.7861 7.55531 5.00351 4.81606H18.4906L16.5157 11.728Z" fill="#FFEDF0"/>
</g>
<defs>
<clipPath id="clip0_157_1176">
<rect width="19.661" height="19.661" fill="white" transform="translate(0.169434 0.169495)"/>
</clipPath>
</defs>
</svg>
