<svg width="15" height="9" viewBox="0 0 15 9" fill="none" xmlns="http://www.w3.org/2000/svg">
<path d="M14.9009 4.25966L11.4918 0.850612C11.3694 0.707617 11.1542 0.690947 11.0112 0.813435C10.8682 0.935894 10.8515 1.15111 10.974 1.2941C10.9854 1.30743 10.9979 1.31988 11.0112 1.33128L13.8373 4.16078H0.340892C0.152634 4.16078 0 4.31341 0 4.5017C0 4.68999 0.152634 4.8426 0.340892 4.8426H13.8373L11.0112 7.66867C10.8682 7.79113 10.8515 8.00634 10.974 8.14934C11.0965 8.29233 11.3117 8.309 11.4547 8.18651C11.468 8.17509 11.4805 8.16267 11.4918 8.14934L14.9009 4.74029C15.033 4.60737 15.033 4.39263 14.9009 4.25966Z" fill="#D2334D"/>
</svg>
